<svg xmlns="http://www.w3.org/2000/svg" width="135" height="40" viewBox="0 0 135 40">
  <path fill="#A6A6A6" d="M130.197 40H4.73C2.12 40 0 37.872 0 35.268V4.726C0 2.12 2.122 0 4.73 0h125.467C132.803 0 135 2.12 135 4.726v30.542c0 2.604-2.197 4.732-4.803 4.732z"/>
  <path d="M134.032 35.268c0 2.116-1.714 3.83-3.834 3.83H4.728c-2.118 0-3.838-1.714-3.838-3.83V4.725C.89 2.61 2.61.89 4.73.89h125.467c2.12 0 3.834 1.72 3.834 3.835l.01 30.543z"/>
  <path d="M30.128 19.784c-.03-3.223 2.64-4.79 2.76-4.864-1.51-2.203-3.852-2.504-4.675-2.528-1.967-.207-3.875 1.177-4.877 1.177-1.022 0-2.565-1.16-4.228-1.13-2.14.03-4.142 1.27-5.24 3.19-2.266 3.92-.576 9.69 1.595 12.86 1.086 1.55 2.355 3.28 4.016 3.22 1.62-.07 2.23-1.04 4.19-1.04 1.94 0 2.51 1.03 4.2 1 1.74-.03 2.84-1.56 3.89-3.13 1.25-1.78 1.76-3.53 1.78-3.62-.04-.02-3.39-1.3-3.42-5.16zm-3.2-9.478c.874-1.093 1.472-2.58 1.306-4.09-1.265.057-2.847.876-3.758 1.945-.806.95-1.526 2.49-1.34 3.94 1.42.11 2.88-.71 3.792-1.79zm27.095 6.874h-2.006l-1.1-3.456h-3.82L46.05 17.18h-1.957L47.88 5.416h2.34l3.803 11.76zm-3.437-4.905l-.995-3.07c-.1-.315-.3-1.055-.59-2.218h-.03c-.11.5-.3 1.24-.56 2.216l-.97 3.07h3.16zm13.156.558c0 1.443-.39 2.583-1.176 3.42-.7.745-1.572 1.117-2.613 1.117-1.125 0-1.932-.4-2.422-1.204v4.45h-1.88v-9.13c0-.906-.02-1.835-.07-2.788h1.66l.11 1.344h.04c.63-1.012 1.58-1.52 2.86-1.52 1.01 0 1.84.397 2.51 1.188.67.79 1.01 1.832 1.01 3.123zm-1.918.07c0-.826-.188-1.506-.56-2.042-.407-.55-.954-.83-1.64-.83-.465 0-.887.16-1.266.46s-.625.71-.742 1.22c-.06.23-.086.43-.086.58v1.41c0 .62.188 1.14.566 1.56.38.43.87.64 1.475.64.71 0 1.27-.27 1.66-.82.4-.55.6-1.27.6-2.16zm11.673-.07c0 1.443-.392 2.583-1.177 3.42-.7.745-1.572 1.117-2.613 1.117-1.124 0-1.93-.4-2.422-1.204v4.45H65.4v-9.13c0-.906-.023-1.835-.07-2.788h1.658l.104 1.344h.035c.628-1.012 1.582-1.52 2.86-1.52 1 0 1.836.397 2.506 1.188.67.79 1.004 1.832 1.004 3.123zm-1.92.07c0-.826-.187-1.506-.558-2.042-.41-.55-.96-.83-1.65-.83-.47 0-.89.16-1.27.46-.38.31-.63.71-.74 1.22-.06.23-.09.43-.09.58v1.41c0 .62.19 1.14.57 1.56.37.43.87.64 1.47.64.71 0 1.26-.27 1.65-.82.39-.55.59-1.27.59-2.16zm15.183.977c0 1-.35 1.815-1.046 2.444-.766.687-1.834 1.03-3.202 1.03-1.266 0-2.28-.245-3.047-.734l.436-1.57c.83.49 1.74.733 2.73.733.71 0 1.27-.16 1.66-.48.4-.32.6-.747.6-1.282 0-.47-.16-.87-.49-1.2-.32-.32-.86-.63-1.62-.91-2.06-.77-3.09-1.89-3.09-3.37 0-.96.37-1.75 1.1-2.37s1.69-.92 2.89-.92c1.07 0 1.96.19 2.67.56l-.48 1.54c-.66-.36-1.42-.54-2.26-.54-.66 0-1.18.17-1.56.49-.31.29-.47.65-.47 1.07 0 .47.18.85.54 1.15.31.28.88.59 1.71.91 1.01.41 1.76.89 2.23 1.43.48.55.72 1.23.72 2.05zm6.246-3.77H90.93v4.12c0 1.046.366 1.57 1.1 1.57.337 0 .615-.03.838-.087l.052 1.43c-.372.14-.86.21-1.466.21-.744 0-1.326-.227-1.744-.68-.42-.454-.63-1.216-.63-2.286v-4.275h-1.237V8.698h1.238V7.145l1.85-.558v2.11h2.08v1.414zm9.35 2.76c0 1.302-.372 2.372-1.115 3.21-.77.86-1.81 1.29-3.1 1.29-1.24 0-2.24-.412-2.97-1.238-.74-.826-1.1-1.867-1.1-3.124 0-1.314.38-2.39 1.15-3.23.77-.836 1.79-1.255 3.08-1.255 1.25 0 2.25.413 3 1.24.72.802 1.08 1.838 1.08 3.106zm-1.954.042c0-.777-.168-1.444-.506-2-.396-.673-.96-1.01-1.69-1.01-.758 0-1.333.336-1.73 1.01-.338.556-.506 1.235-.506 2.035 0 .777.168 1.444.506 2 .407.674.98 1.01 1.71 1.01.723 0 1.286-.342 1.692-1.026.35-.56.524-1.24.524-2.01zm8.08-2.556c-.187-.035-.385-.052-.594-.052-.662 0-1.176.25-1.535.75-.313.442-.472 1-.472 1.675v4.45H104v-5.82c0-.98-.02-1.87-.054-2.67h1.642l.07 1.62h.052c.197-.56.512-1.01.94-1.35.42-.31.874-.46 1.362-.46.175 0 .33.01.47.03v1.79h.003zm8.428 2.18c0 .338-.023.624-.07.856h-5.652c.022.837.297 1.478.82 1.92.477.395 1.094.592 1.85.592.838 0 1.6-.133 2.285-.4l.297 1.308c-.803.35-1.75.523-2.844.523-1.314 0-2.348-.387-3.098-1.16-.75-.774-1.126-1.813-1.126-3.116 0-1.28.35-2.35 1.047-3.2.73-.91 1.72-1.36 2.96-1.36 1.22 0 2.14.45 2.77 1.36.5.72.75 1.61.75 2.67zm-1.797-.49c.012-.556-.11-1.04-.366-1.446-.326-.523-.826-.785-1.5-.785-.617 0-1.118.256-1.502.768-.313.408-.5.896-.558 1.466l3.926-.01zm-68.8 14.882c.21-.878.363-1.79.468-2.703l1.01.13c-.11.83-.28 1.673-.48 2.503.31-.022.58-.034.8-.034 1.61 0 2.33.843 2.33 2.598 0 1.79-.31 3.384-.75 4.1-.35.57-.76.78-1.51.78-.55 0-1.19-.08-1.69-.197l.07-.947c.46.152 1.03.223 1.43.223.45 0 .64-.07.85-.38.38-.55.62-1.95.62-3.53 0-1.27-.38-1.71-1.39-1.71-.28 0-.6.02-.96.04-.64 2.37-1.53 4.54-2.56 6.03l-.89-.48c1-1.34 1.86-3.3 2.45-5.46-.81.1-1.65.23-2.39.37l-.17-.94c.83-.14 1.86-.27 2.8-.36zm7.678 4.037l-1 .246c-.2-1.53-.88-3.27-2.14-4.56l.82-.52c1.36 1.41 2.12 3.35 2.33 4.85zm2.78-.725c1.17-.82 2.64-1.38 3.89-1.38 1.82 0 2.92.876 2.92 2.386 0 1.873-1.53 3.055-5.17 3.055-.15 0-.36 0-.55-.01l-.21-.94c.28.01.64.03.86.03 2.93 0 4.05-.83 4.05-2.09 0-1.03-.68-1.57-2.09-1.57-1.2 0-2.58.67-3.91 1.82l-.8-.35c0-2.52.27-3.74 1.16-5.02l.92.32c-.82 1.14-1.04 2.21-1.04 3.79zm-.1-5.103l.26-.936c1.63.25 4.09.8 5.25 1.22l-.27.93c-1.05-.41-3.64-1-5.23-1.2zm11.6 3.053c.86.48 1.97 1.206 2.76 1.804.71-1.053 1.19-2.235 1.44-3.418h-3.78c-.85 1.357-1.96 2.69-3.05 3.547l-.78-.668c1.63-1.182 3.23-3.486 3.91-5.242l.98.34c-.14.352-.31.713-.51 1.1H73l.746.41c-.82 3.77-3.03 6.93-6.45 8.31l-.713-.865c1.56-.573 2.846-1.532 3.828-2.692-.78-.644-1.94-1.416-2.76-1.86l.64-.765zm4.63-4.364c.48.48.86.982 1.23 1.568l-.53.375c-.35-.58-.74-1.11-1.2-1.56l.51-.39zm1.52-.34c.49.492.86.996 1.22 1.592l-.55.363c-.32-.59-.71-1.11-1.18-1.59l.52-.36zm6.03 2.774v-2.023h1.06v2.024h3.07l.89.37c-.29 3.57-1.69 6.35-5.44 7.7l-.64-.91c3.46-1.17 4.7-3.48 4.87-6.18H78v2.69h-1.06v-3.67h3.5zm10.82 1.09l-.69.854c-.64-.573-2.05-1.593-3.02-2.106l.66-.843c1.01.585 2.33 1.497 3.06 2.095zm4.51.023l.68.795c-1.6 2.61-4.89 5.104-8.08 6.05l-.52-1.005c3.13-.797 6.38-3.22 7.94-5.84zm11.16-1.65v7.854h-8.36v-7.854h8.36zm-1.07 6.845v-5.863h-6.23v5.863h6.23zm13.01-3.814v1.076h-9.52v-1.076h9.53zm9.43 1.674l-.68.865c-1.25-.912-3.11-1.954-4.64-2.68V34.3h-1.08V24.237h1.07v3.242c1.67.76 3.83 1.94 5.33 2.95zm-2.72-4.95c.42.434.84 1.018 1.16 1.557l-.51.327c-.28-.526-.72-1.146-1.12-1.557l.49-.328zm1.23-.74c.41.434.85 1.008 1.17 1.546l-.51.327c-.28-.5-.73-1.12-1.13-1.53l.48-.34z" fill="#FFF"/>
</svg>
